<?xml version="1.0" encoding="utf-8"?>
<!-- Generator: Adobe Illustrator 18.1.1, SVG Export Plug-In . SVG Version: 6.00 Build 0)  -->
<svg version="1.1" id="Capa_1" xmlns="http://www.w3.org/2000/svg" xmlns:xlink="http://www.w3.org/1999/xlink" x="0px" y="0px"
	 viewBox="-16 60 866 728" enable-background="new -16 60 866 728" xml:space="preserve">
<g>
	<g id="c75_volume">
		<path fill="#7F7F7F" d="M170.5,317.6H75v212.7h95.5l180.5,133.9c0,0,33.1,27.8,33.1-0.9c0-28.7,0-456.7,0-482.9
			c0-22.5-29.1-0.5-29.1-0.5L170.5,317.6z"/>
		<path fill="#7F7F7F" d="M487,276.1c-9.5-9.5-24.9-9.5-34.3,0c-9.5,9.5-9.5,24.9,0,34.3c31.2,31.3,46.7,72,46.8,112.9
			c0,41.1-15.5,81.9-46.8,113.1c-9.5,9.5-9.5,24.9,0,34.4c4.7,4.8,10.9,7.1,17.2,7.1c6.2,0,12.4-2.3,17.1-7.1
			c40.6-40.7,61-94.3,61-147.6C548.1,370.1,527.7,316.8,487,276.1z"/>
		<path fill="#7F7F7F" d="M552.9,199.6c-9.6-9.5-24.9-9.5-34.4,0c-9.4,9.5-9.4,24.9,0,34.4c52.5,52.5,78.7,120.9,78.7,189.6
			c-0.1,69.1-26.1,137.8-78.7,190.5c-9.5,9.5-9.4,24.8,0,34.4c4.8,4.6,11,7.1,17.2,7.1c6.2,0,12.4-2.4,17.2-7.1
			c62-62.2,92.9-143.7,92.9-224.9C645.8,342.6,614.7,261.4,552.9,199.6z"/>
		<path fill="#7F7F7F" d="M633.6,121.2c-9.5-9.5-24.9-9.5-34.4,0c-9.4,9.5-9.4,24.9,0,34.3c74.2,74.2,111.2,171,111.2,268.1
			c0,97.4-36.9,194.5-111.2,268.9c-9.5,9.5-9.4,24.9,0,34.4c4.8,4.7,11,7.1,17.3,7.1c6.2,0,12.3-2.3,17.1-7.1
			C717.2,643.1,759,533.2,759,423.6C759,314.3,717,204.7,633.6,121.2z"/>
	</g>
</g>
</svg>
